<svg xmlns="http://www.w3.org/2000/svg" x="0px" y="0px" viewBox="0 0 500 500" style="enable-background:new 0 0 500 500;" xml:space="preserve">
<g>
	<path class="st0" d="M250,30.6c-124.2,0-225,100.7-225,225c0,99.4,64.5,183.7,153.9,213.5c11.2,2.1,15.4-4.9,15.4-10.8
		c0-5.4-0.2-23.1-0.3-41.9c-62.6,13.6-75.8-26.5-75.8-26.5c-10.2-26-25-32.9-25-32.9c-20.4-14,1.5-13.7,1.5-13.7
		c22.6,1.6,34.5,23.2,34.5,23.2c20.1,34.4,52.6,24.5,65.5,18.7c2-14.5,7.8-24.5,14.3-30.1c-50-5.7-102.5-25-102.5-111.2
		c0-24.6,8.8-44.6,23.2-60.4c-2.3-5.7-10-28.6,2.2-59.5c0,0,18.9-6,61.9,23.1c17.9-5,37.2-7.5,56.3-7.6c19.1,0.1,38.4,2.6,56.4,7.6
		c42.9-29.1,61.8-23.1,61.8-23.1c12.2,31,4.5,53.9,2.2,59.5c14.4,15.8,23.2,35.8,23.2,60.4c0,86.4-52.6,105.4-102.7,111
		c8.1,7,15.3,20.7,15.3,41.7c0,30.1-0.3,54.3-0.3,61.7c0,6,4,13,15.5,10.8C410.6,439.2,475,354.9,475,255.6
		C475,131.3,374.3,30.6,250,30.6z"/>
	<path class="st1" d="M110.2,353.6c-0.5,1.1-2.3,1.5-3.9,0.7c-1.6-0.7-2.5-2.3-2-3.4c0.5-1.1,2.2-1.5,3.9-0.7
		C109.9,350.9,110.8,352.5,110.2,353.6L110.2,353.6z M107.5,351.6"/>
	<path class="st1" d="M119.3,363.8c-1.1,1-3.2,0.5-4.6-1c-1.5-1.6-1.7-3.7-0.7-4.7c1.1-1,3.1-0.5,4.6,1
		C120.2,360.7,120.5,362.8,119.3,363.8L119.3,363.8z M117.2,361.5"/>
	<path class="st1" d="M128.2,376.7c-1.4,1-3.6,0.1-5-1.9c-1.4-2-1.4-4.4,0-5.4c1.4-1,3.6-0.1,5,1.9
		C129.6,373.3,129.6,375.7,128.2,376.7L128.2,376.7z M128.2,376.7"/>
	<path class="st1" d="M140.4,389.2c-1.2,1.4-3.9,1-5.8-0.9c-2-1.8-2.5-4.4-1.3-5.7c1.3-1.4,3.9-1,5.8,0.9
		C141.1,385.3,141.7,387.9,140.4,389.2L140.4,389.2z M140.4,389.2"/>
	<path class="st1" d="M157.1,396.5c-0.5,1.8-3.1,2.6-5.6,1.8c-2.5-0.8-4.2-2.8-3.7-4.6c0.5-1.8,3.1-2.6,5.6-1.8
		C156,392.7,157.7,394.7,157.1,396.5L157.1,396.5z M157.1,396.5"/>
	<path class="st1" d="M175.5,397.9c0.1,1.9-2.1,3.4-4.8,3.4c-2.7,0.1-4.9-1.4-4.9-3.3c0-1.9,2.1-3.4,4.8-3.4
		C173.3,394.5,175.5,396,175.5,397.9L175.5,397.9z M175.5,397.9"/>
	<path class="st1" d="M192.7,394.9c0.3,1.8-1.5,3.7-4.2,4.2c-2.6,0.5-5-0.6-5.4-2.4c-0.3-1.9,1.6-3.7,4.2-4.2
		C190,392,192.3,393.1,192.7,394.9L192.7,394.9z M192.7,394.9"/>
</g>
</svg>
